<mxfile host="app.diagrams.net" modified="2024-04-28T12:28:13.331Z" agent="Mozilla/5.0 (Macintosh; Intel Mac OS X 10_15_7) AppleWebKit/605.1.15 (KHTML, like Gecko) Version/17.4.1 Safari/605.1.15" etag="bOjuEHRkfLcvm2ZpSMeL" version="24.3.1" type="github" pages="2">
  <diagram name="fta_plane" id="ZMkeT3fpXiXIag67BhHE">
    <mxGraphModel dx="1026" dy="606" grid="1" gridSize="10" guides="1" tooltips="1" connect="1" arrows="1" fold="1" page="1" pageScale="1" pageWidth="827" pageHeight="1169" math="0" shadow="0">
      <root>
        <mxCell id="0" />
        <mxCell id="1" parent="0" />
      </root>
    </mxGraphModel>
  </diagram>
  <diagram id="upqLsrC0K6RmAq0Nd20N" name="fta_left_elevator">
    <mxGraphModel dx="1026" dy="606" grid="1" gridSize="10" guides="1" tooltips="1" connect="1" arrows="1" fold="1" page="1" pageScale="1" pageWidth="827" pageHeight="1169" math="0" shadow="0">
      <root>
        <mxCell id="0" />
        <mxCell id="1" parent="0" />
        <mxCell id="1s0xzN7Huo1nzK5fy9tm-1" value="Failed left&lt;div&gt;elevator&lt;/div&gt;" style="rounded=0;whiteSpace=wrap;html=1;" parent="1" vertex="1">
          <mxGeometry x="270" y="50" width="120" height="60" as="geometry" />
        </mxCell>
        <mxCell id="EImvLjYrqiO6MeXCEXpc-1" value="P1" style="ellipse;whiteSpace=wrap;html=1;" vertex="1" parent="1">
          <mxGeometry x="130" y="240" width="40" height="40" as="geometry" />
        </mxCell>
        <mxCell id="EImvLjYrqiO6MeXCEXpc-2" value="P2" style="ellipse;whiteSpace=wrap;html=1;" vertex="1" parent="1">
          <mxGeometry x="190" y="240" width="40" height="40" as="geometry" />
        </mxCell>
        <mxCell id="EImvLjYrqiO6MeXCEXpc-3" value="P3" style="ellipse;whiteSpace=wrap;html=1;" vertex="1" parent="1">
          <mxGeometry x="250" y="240" width="40" height="40" as="geometry" />
        </mxCell>
        <mxCell id="EImvLjYrqiO6MeXCEXpc-4" value="S1" style="ellipse;whiteSpace=wrap;html=1;" vertex="1" parent="1">
          <mxGeometry x="310" y="240" width="40" height="40" as="geometry" />
        </mxCell>
        <mxCell id="EImvLjYrqiO6MeXCEXpc-5" value="S2" style="ellipse;whiteSpace=wrap;html=1;" vertex="1" parent="1">
          <mxGeometry x="373.5" y="240" width="40" height="40" as="geometry" />
        </mxCell>
        <mxCell id="EImvLjYrqiO6MeXCEXpc-6" value="Y" style="ellipse;whiteSpace=wrap;html=1;" vertex="1" parent="1">
          <mxGeometry x="440" y="240" width="40" height="40" as="geometry" />
        </mxCell>
        <mxCell id="EImvLjYrqiO6MeXCEXpc-7" value="G" style="ellipse;whiteSpace=wrap;html=1;" vertex="1" parent="1">
          <mxGeometry x="510" y="240" width="40" height="40" as="geometry" />
        </mxCell>
        <mxCell id="EImvLjYrqiO6MeXCEXpc-8" value="B" style="ellipse;whiteSpace=wrap;html=1;" vertex="1" parent="1">
          <mxGeometry x="580" y="240" width="40" height="40" as="geometry" />
        </mxCell>
        <mxCell id="EImvLjYrqiO6MeXCEXpc-9" value="" style="verticalLabelPosition=bottom;shadow=0;dashed=0;align=center;html=1;verticalAlign=top;shape=mxgraph.electrical.logic_gates.logic_gate;operation=or;rotation=-90;" vertex="1" parent="1">
          <mxGeometry x="30" y="90" width="50" height="30" as="geometry" />
        </mxCell>
        <mxCell id="EImvLjYrqiO6MeXCEXpc-10" value="" style="verticalLabelPosition=bottom;shadow=0;dashed=0;align=center;html=1;verticalAlign=top;shape=mxgraph.electrical.logic_gates.logic_gate;operation=and;rotation=-90;" vertex="1" parent="1">
          <mxGeometry x="80" y="90" width="50" height="30" as="geometry" />
        </mxCell>
      </root>
    </mxGraphModel>
  </diagram>
</mxfile>
